<svg xmlns="http://www.w3.org/2000/svg" width="29.678" height="29.732" viewBox="0 0 29.678 29.732">
  <path id="icono-tel--light" d="M29.843,23.012v4.024a2.683,2.683,0,0,1-2.924,2.683A26.544,26.544,0,0,1,15.344,25.6,26.155,26.155,0,0,1,7.3,17.553,26.544,26.544,0,0,1,3.179,5.924,2.683,2.683,0,0,1,5.848,3H9.872a2.683,2.683,0,0,1,2.683,2.307,17.222,17.222,0,0,0,.939,3.769,2.683,2.683,0,0,1-.6,2.83l-1.7,1.7a21.46,21.46,0,0,0,8.048,8.048l1.7-1.7a2.683,2.683,0,0,1,2.83-.6,17.222,17.222,0,0,0,3.769.939,2.683,2.683,0,0,1,2.307,2.723Z" transform="translate(-1.667 -1.5)" fill="none" stroke="#fcfcfc" stroke-linecap="round" stroke-linejoin="round" stroke-width="3"/>
</svg>
